# xmcd
#
# Track frame offsets:
#	150
#	17512
#	32790
#	53055
#	71305
#	87165
#	101452
#	117307
#	137755
#	155097
#	170352
#	190615
#	208837
#	224645
#	238892
#	254695
#	286547
#
# Disc length: 3833 seconds
#
# Revision: 1
# Processed by: cddbd v1.5.2PL0 Copyright (c) Steve Scherf et al.
# Submitted via: audiograbber 1.83.01
#
DISCID=f20ef711
DTITLE=Faith Hill - Hits Of Faith Hill - Vol. 1
DYEAR=1900
DGENRE=
TTITLE0=Someone Else's Dream
TTITLE1=Let's Go To Vegas
TTITLE2=Piece Of My Heart
TTITLE3=But I Will
TTITLE4=Take Me As I Am
TTITLE5=Just About Now
TTITLE6=It Matters To Me
TTITLE7=A Man's Home Is His Castle
TTITLE8=Somoene Else's Dream (with vocals)
TTITLE9=Let's Go To Vegas (with vocals)
TTITLE10=Piece Of My Heart (with vocals)
TTITLE11=But I Will (with vocals)
TTITLE12=Take Me As I Am (with vocals)
TTITLE13=Just About Now (with vocals)
TTITLE14=It Matters To Me (with vocals)
TTITLE15=A Man's Home Is His Castle (with vocals)
TTITLE16=Data Track
EXTD=Sound Choice Disc 2040 \n
EXTT0=
EXTT1=
EXTT2=
EXTT3=
EXTT4=
EXTT5=
EXTT6=
EXTT7=
EXTT8=
EXTT9=
EXTT10=
EXTT11=
EXTT12=
EXTT13=
EXTT14=
EXTT15=
EXTT16=
PLAYORDER=
